<?xml version="1.0" encoding="iso-8859-1"?>
<!-- Generator: Adobe Illustrator 19.0.0, SVG Export Plug-In . SVG Version: 6.00 Build 0)  -->
<svg version="1.1" id="Layer_1" xmlns="http://www.w3.org/2000/svg" xmlns:xlink="http://www.w3.org/1999/xlink" x="0px" y="0px"
	 viewBox="0 0 512 512" style="enable-background:new 0 0 512 512;" xml:space="preserve">
<g>
	<g>
		<path d="M471.17,225.458c4.143,0,7.499-3.358,7.499-7.499v-86.232c0-2.68-1.43-5.154-3.75-6.494
			C465.234,119.641,269.42,6.588,259.748,1.005c-2.32-1.34-5.179-1.34-7.499,0L37.081,125.233c-2.32,1.34-3.75,3.815-3.75,6.494
			v248.455c0,2.68,1.43,5.154,3.75,6.494C267.729,519.842,252.927,511.91,255.998,511.91c2.974,0-11.331,7.702,218.92-125.233
			c2.32-1.34,3.75-3.815,3.75-6.494V245.957c0-4.142-3.357-7.499-7.499-7.499s-7.499,3.358-7.499,7.499v129.897L263.498,491.421
			V260.284l200.172-115.569v73.244C463.67,222.1,467.027,225.458,471.17,225.458z M255.998,16.158l52.069,30.062L107.896,161.788
			l-52.067-30.062L255.998,16.158z M115.261,183.402l47.91,27.661v86.973l-47.91-27.661V183.402z M163.171,442.157l-47.91-27.661
			v-25.664l47.91,27.661V442.157z M248.499,491.421l-70.33-40.604v-38.654c0-2.68-1.43-5.154-3.75-6.494l-62.909-36.32
			c-4.995-2.885-11.249,0.734-11.249,6.494v29.994l-51.933-29.984V144.715l51.933,29.984v100.005c0,2.68,1.43,5.154,3.75,6.494
			c68.417,39.5,63.824,37.325,66.658,37.325c4.133,0,7.499-3.354,7.499-7.499v-91.346c15.473,8.934,55.941,32.297,70.33,40.605
			V491.421z M255.998,247.295l-70.327-40.603l122.283-70.495c3.588-2.069,4.819-6.654,2.752-10.242
			c-2.069-3.589-6.655-4.82-10.243-2.752l-129.794,74.825l-47.774-27.582l200.17-115.569c5.858,3.383,42.033,24.268,47.773,27.582
			l-47.435,27.387c-3.587,2.071-4.815,6.657-2.745,10.244c2.07,3.587,6.658,4.816,10.244,2.745l54.934-31.716l70.336,40.607
			L255.998,247.295z"/>
	</g>
</g>
<g>
	<g>
		<path d="M422.328,213.28c-2.07-3.587-6.659-4.816-10.244-2.745l-101.047,58.339c-3.587,2.071-4.815,6.657-2.745,10.244
			c2.071,3.59,6.66,4.814,10.244,2.745l101.047-58.339C423.17,221.453,424.399,216.867,422.328,213.28z"/>
	</g>
</g>
<g>
	<g>
		<path d="M422.328,246.874c-2.071-3.587-6.659-4.815-10.244-2.745l-101.047,58.34c-3.587,2.071-4.815,6.657-2.745,10.244
			c2.073,3.591,6.661,4.813,10.244,2.745l101.047-58.34C423.17,255.047,424.399,250.46,422.328,246.874z"/>
	</g>
</g>
<g>
</g>
<g>
</g>
<g>
</g>
<g>
</g>
<g>
</g>
<g>
</g>
<g>
</g>
<g>
</g>
<g>
</g>
<g>
</g>
<g>
</g>
<g>
</g>
<g>
</g>
<g>
</g>
<g>
</g>
</svg>
