<?xml version="1.0" encoding="iso-8859-1"?>
<!-- Generator: Adobe Illustrator 19.0.0, SVG Export Plug-In . SVG Version: 6.00 Build 0)  -->
<svg version="1.1" id="Capa_1" xmlns="http://www.w3.org/2000/svg" xmlns:xlink="http://www.w3.org/1999/xlink" x="0px" y="0px"
	 viewBox="0 0 511.999 511.999" style="enable-background:new 0 0 511.999 511.999;" xml:space="preserve">
<g>
	<g>
		<path d="M471.66,32.788h-72.99c-4.142,0-7.5,3.357-7.5,7.5s3.358,7.5,7.5,7.5h72.99c13.973,0,25.34,11.367,25.34,25.34v9.748H66
			v-9.748c0-13.973,11.367-25.34,25.34-25.34h274.67c4.142,0,7.5-3.357,7.5-7.5s-3.358-7.5-7.5-7.5H91.34
			C69.096,32.788,51,50.884,51,73.127v97.943H40.338C18.096,171.071,0,189.166,0,211.409v227.463
			c0,22.243,18.096,40.339,40.338,40.339h380.323c22.243,0,40.338-18.096,40.338-40.339v-97.944h10.66
			c22.244,0,40.34-18.097,40.34-40.34V73.127C512,50.884,493.904,32.788,471.66,32.788z M497,128.449H143.333
			c-4.142,0-7.5,3.357-7.5,7.5s3.358,7.5,7.5,7.5H497v157.138c0,13.973-11.367,25.34-25.34,25.34H461V211.409
			c0-22.242-18.096-40.338-40.338-40.338h-65.979c-4.142,0-7.5,3.357-7.5,7.5s3.358,7.5,7.5,7.5h65.979
			c13.972,0,25.338,11.366,25.338,25.338v227.463c0,13.972-11.367,25.339-25.338,25.339H40.338C26.367,464.21,15,452.843,15,438.872
			V211.409c0-13.972,11.367-25.338,25.338-25.338h281.34c4.142,0,7.5-3.357,7.5-7.5s-3.358-7.5-7.5-7.5H66V143.45h43.667
			c4.142,0,7.5-3.357,7.5-7.5s-3.358-7.5-7.5-7.5H66V97.875h431V128.449z"/>
	</g>
</g>
<g>
	<g>
		<path d="M393.952,365.384h-21.958c-2.811,0-5.512,0.477-8.034,1.343c-2.515-0.863-5.207-1.343-8.012-1.343h-21.957
			c-13.682,0-24.813,11.131-24.813,24.813v21.957c0,13.682,11.131,24.813,24.813,24.813h21.957c2.808,0,5.507-0.474,8.026-1.337
			c2.518,0.862,5.213,1.337,8.02,1.337h21.958c13.682,0,24.813-11.131,24.813-24.813v-21.957
			C418.765,376.514,407.634,365.384,393.952,365.384z M349.21,421.968h-15.218c-5.411-0.001-9.813-4.403-9.813-9.813v-21.957
			c0-5.411,4.402-9.813,9.813-9.813h15.218c-1.302,3.012-2.027,6.329-2.027,9.813v21.957
			C347.183,415.639,347.908,418.956,349.21,421.968z M403.765,412.155c0,5.41-4.402,9.813-9.813,9.813h-21.958
			c-5.411,0-9.813-4.402-9.813-9.813v-21.957c0-5.411,4.402-9.813,9.813-9.813h21.958c5.411-0.001,9.813,4.402,9.813,9.813V412.155z
			"/>
	</g>
</g>
<g>
	<g>
		<path d="M120.363,266.182H83.469c-4.142,0-7.5,3.357-7.5,7.5s3.358,7.5,7.5,7.5h36.894c4.142,0,7.5-3.357,7.5-7.5
			S124.505,266.182,120.363,266.182z"/>
	</g>
</g>
<g>
	<g>
		<path d="M206.086,266.182h-36.894c-4.142,0-7.5,3.357-7.5,7.5s3.358,7.5,7.5,7.5h36.894c4.142,0,7.5-3.357,7.5-7.5
			S210.228,266.182,206.086,266.182z"/>
	</g>
</g>
<g>
	<g>
		<path d="M291.809,266.182h-36.894c-4.142,0-7.5,3.357-7.5,7.5s3.358,7.5,7.5,7.5h36.894c4.142,0,7.5-3.357,7.5-7.5
			S295.951,266.182,291.809,266.182z"/>
	</g>
</g>
<g>
	<g>
		<path d="M377.533,266.182h-36.894c-4.142,0-7.5,3.357-7.5,7.5s3.358,7.5,7.5,7.5h36.894c4.142,0,7.5-3.357,7.5-7.5
			S381.675,266.182,377.533,266.182z"/>
	</g>
</g>
<g>
	<g>
		<path d="M120.363,239.87H83.469c-4.142,0-7.5,3.357-7.5,7.5s3.358,7.5,7.5,7.5h36.894c4.142,0,7.5-3.357,7.5-7.5
			S124.505,239.87,120.363,239.87z"/>
	</g>
</g>
<g>
	<g>
		<path d="M206.086,239.87h-36.894c-4.142,0-7.5,3.357-7.5,7.5s3.358,7.5,7.5,7.5h36.894c4.142,0,7.5-3.357,7.5-7.5
			S210.228,239.87,206.086,239.87z"/>
	</g>
</g>
<g>
	<g>
		<path d="M291.809,239.87h-36.894c-4.142,0-7.5,3.357-7.5,7.5s3.358,7.5,7.5,7.5h36.894c4.142,0,7.5-3.357,7.5-7.5
			S295.951,239.87,291.809,239.87z"/>
	</g>
</g>
<g>
	<g>
		<path d="M377.533,239.87h-36.894c-4.142,0-7.5,3.357-7.5,7.5s3.358,7.5,7.5,7.5h36.894c4.142,0,7.5-3.357,7.5-7.5
			S381.675,239.87,377.533,239.87z"/>
	</g>
</g>
<g>
	<g>
		<path d="M197.416,334.043H75.885c-4.142,0-7.5,3.357-7.5,7.5s3.358,7.5,7.5,7.5h121.531c4.142,0,7.5-3.357,7.5-7.5
			S201.558,334.043,197.416,334.043z"/>
	</g>
</g>
<g>
	<g>
		<path d="M197.416,359.959H75.885c-4.142,0-7.5,3.357-7.5,7.5s3.358,7.5,7.5,7.5h121.531c4.142,0,7.5-3.357,7.5-7.5
			S201.558,359.959,197.416,359.959z"/>
	</g>
</g>
<g>
	<g>
		<path d="M136.65,401.054H75.885c-4.142,0-7.5,3.357-7.5,7.5s3.358,7.5,7.5,7.5h60.766c4.142,0,7.5-3.357,7.5-7.5
			S140.792,401.054,136.65,401.054z"/>
	</g>
</g>
<g>
</g>
<g>
</g>
<g>
</g>
<g>
</g>
<g>
</g>
<g>
</g>
<g>
</g>
<g>
</g>
<g>
</g>
<g>
</g>
<g>
</g>
<g>
</g>
<g>
</g>
<g>
</g>
<g>
</g>
</svg>
