<svg xmlns="http://www.w3.org/2000/svg" viewBox="0 0 511.999 511.999"><path d="M471.66 32.788h-72.99c-4.142 0-7.5 3.357-7.5 7.5s3.358 7.5 7.5 7.5h72.99c13.973 0 25.34 11.367 25.34 25.34v9.748H66v-9.748c0-13.973 11.367-25.34 25.34-25.34h274.67c4.142 0 7.5-3.357 7.5-7.5s-3.358-7.5-7.5-7.5H91.34C69.096 32.788 51 50.884 51 73.128v97.942H40.338C18.096 171.07 0 189.166 0 211.41V438.87c0 22.243 18.096 40.34 40.338 40.34H420.66c22.244 0 40.34-18.097 40.34-40.34v-97.944h10.66c22.243 0 40.34-18.097 40.34-40.34V73.128c0-22.244-18.096-40.34-40.34-40.34zm25.34 95.66H143.333a7.5 7.5 0 0 0 0 15H497v157.14c0 13.972-11.367 25.34-25.34 25.34H461v-114.52c0-22.24-18.096-40.337-40.338-40.337h-65.98a7.5 7.5 0 0 0 0 15h65.98c13.972 0 25.338 11.367 25.338 25.34V438.87c0 13.972-11.367 25.34-25.338 25.34H40.338C26.368 464.21 15 452.84 15 438.87V211.41c0-13.973 11.367-25.34 25.338-25.34h281.34c4.142 0 7.5-3.356 7.5-7.5s-3.358-7.5-7.5-7.5H66v-27.62h43.667c4.142 0 7.5-3.357 7.5-7.5s-3.358-7.5-7.5-7.5H66V97.875h431v30.574z"/><path d="M393.952 365.384h-21.958c-2.81 0-5.512.477-8.034 1.343a24.633 24.633 0 0 0-8.012-1.343H333.99c-13.68 0-24.812 11.13-24.812 24.813v21.957c0 13.682 11.13 24.813 24.813 24.813h21.958c2.808 0 5.507-.474 8.026-1.337a24.71 24.71 0 0 0 8.02 1.337h21.958c13.682 0 24.813-11.13 24.813-24.813v-21.957c0-13.683-11.13-24.813-24.813-24.813zm-44.742 56.584h-15.218c-5.41 0-9.813-4.403-9.813-9.813v-21.957c0-5.41 4.4-9.813 9.812-9.813h15.218a24.67 24.67 0 0 0-2.027 9.813v21.957c0 3.484.725 6.8 2.027 9.813zm54.555-9.813c0 5.41-4.402 9.813-9.813 9.813h-21.958c-5.41 0-9.813-4.402-9.813-9.813v-21.957c0-5.41 4.403-9.813 9.814-9.813h21.958c5.41 0 9.813 4.402 9.813 9.813v21.957zM120.363 266.182H83.47c-4.143 0-7.5 3.357-7.5 7.5s3.357 7.5 7.5 7.5h36.893c4.142 0 7.5-3.357 7.5-7.5s-3.358-7.5-7.5-7.5zM206.086 266.182h-36.894c-4.142 0-7.5 3.357-7.5 7.5s3.358 7.5 7.5 7.5h36.894c4.142 0 7.5-3.357 7.5-7.5s-3.358-7.5-7.5-7.5zM291.81 266.182h-36.895c-4.142 0-7.5 3.357-7.5 7.5s3.358 7.5 7.5 7.5h36.894a7.5 7.5 0 0 0 0-15zM377.533 266.182H340.64c-4.143 0-7.5 3.357-7.5 7.5s3.357 7.5 7.5 7.5h36.893c4.142 0 7.5-3.357 7.5-7.5s-3.358-7.5-7.5-7.5zM120.363 239.87H83.47c-4.143 0-7.5 3.357-7.5 7.5s3.357 7.5 7.5 7.5h36.893c4.142 0 7.5-3.357 7.5-7.5s-3.358-7.5-7.5-7.5zM206.086 239.87h-36.894c-4.142 0-7.5 3.357-7.5 7.5s3.358 7.5 7.5 7.5h36.894c4.142 0 7.5-3.357 7.5-7.5s-3.358-7.5-7.5-7.5zM291.81 239.87h-36.895c-4.142 0-7.5 3.357-7.5 7.5s3.358 7.5 7.5 7.5h36.894a7.5 7.5 0 0 0 0-15zM377.533 239.87H340.64c-4.143 0-7.5 3.357-7.5 7.5s3.357 7.5 7.5 7.5h36.893c4.142 0 7.5-3.357 7.5-7.5s-3.358-7.5-7.5-7.5zM197.416 334.043H75.886c-4.143 0-7.5 3.357-7.5 7.5s3.357 7.5 7.5 7.5h121.53c4.142 0 7.5-3.357 7.5-7.5s-3.358-7.5-7.5-7.5zM197.416 359.96H75.886c-4.143 0-7.5 3.356-7.5 7.5s3.357 7.5 7.5 7.5h121.53a7.5 7.5 0 0 0 0-15zM136.65 401.054H75.885c-4.142 0-7.5 3.357-7.5 7.5s3.358 7.5 7.5 7.5h60.766a7.5 7.5 0 0 0 0-15z"/></svg>