<?xml version="1.0" encoding="iso-8859-1"?>
<!-- Generator: Adobe Illustrator 19.0.0, SVG Export Plug-In . SVG Version: 6.00 Build 0)  -->
<svg version="1.1" id="Layer_1" xmlns="http://www.w3.org/2000/svg" xmlns:xlink="http://www.w3.org/1999/xlink" x="0px" y="0px"
	 viewBox="0 0 512.001 512.001" style="enable-background:new 0 0 512.001 512.001;" xml:space="preserve">
<g>
	<g>
		<path d="M159.145,426.42c-10.197,0-18.494,8.297-18.494,18.495c0,10.198,8.297,18.495,18.494,18.495
			c10.197,0,18.493-8.297,18.493-18.495S169.342,426.42,159.145,426.42z M155.659,444.916c0-4.607,6.97-4.608,6.97,0
			C162.629,449.522,155.659,449.524,155.659,444.916z"/>
	</g>
</g>
<g>
	<g>
		<path d="M441.259,426.42c-10.197,0-18.494,8.297-18.494,18.495c0,10.198,8.297,18.495,18.494,18.495s18.494-8.297,18.494-18.495
			S451.456,426.42,441.259,426.42z M437.773,444.916c0-4.607,6.971-4.608,6.971,0C444.744,449.523,437.773,449.524,437.773,444.916z
			"/>
	</g>
</g>
<g>
	<g>
		<path d="M491.525,359.901h-38.557c1.084-3.901,0.763,3.571,0.763-109.049c0-4.919-1.745-9.437-4.648-12.971
			c2.902-3.534,4.648-8.053,4.648-12.972v-47.968c0-4.145-3.359-7.504-7.504-7.504c-4.144,0-7.504,3.359-7.504,7.504v47.968
			c0,3.015-2.451,5.467-5.466,5.467c-12.244,0-97.984,0-110.253,0c-3.015,0-5.466-2.452-5.466-5.467V121.328
			c0-3.015,2.451-5.466,5.466-5.466h22.76v44.287c0,11.291,9.185,20.476,20.476,20.476h23.78c11.29,0,20.475-9.185,20.475-20.476
			v-44.287h22.761c3.015,0,5.466,2.451,5.466,5.466v30.256c0,4.145,3.36,7.504,7.504,7.504c4.145,0,7.504-3.359,7.504-7.504v-30.256
			c0-11.29-9.185-20.475-20.475-20.475c-12.244,0-97.984,0-110.253,0c-4.919,0-9.437,1.745-12.971,4.648
			c-3.534-2.902-8.052-4.648-12.971-4.648c-12.244,0-97.984,0-110.253,0c-11.29,0-20.475,9.185-20.475,20.475v103.582
			c0,4.919,1.745,9.438,4.648,12.972c-2.902,3.534-4.648,8.052-4.648,12.971c0,112.858-0.313,105.174,0.763,109.049h-20.013v-226.66
			c0-4.145-3.359-7.504-7.504-7.504c-4.145,0-7.504,3.359-7.504,7.504v226.661h-12.674v-282.8c3.954,0.924,8.323,1.009,12.674,0
			v30.125c0,4.145,3.359,7.504,7.504,7.504c4.145,0,7.504-3.359,7.504-7.504V67.941c15.478-18.172,2.473-46.195-21.347-46.195
			c-6.921,0-13.259,2.524-18.155,6.695H20.792C10.135,28.441,0,36.59,0,50.341c0,11.466,9.327,20.793,20.792,20.793h83.603v288.831
			c-10.696,0.661-19.203,9.55-19.203,20.41v30.45c0,11.29,9.185,20.475,20.475,20.475h10.231
			c-9.232,29.257,12.788,58.955,43.248,58.955c30.438,0,52.486-29.676,43.247-58.955h22.478c4.145,0,7.504-3.359,7.504-7.504
			c0-4.145-3.359-7.504-7.504-7.504h-30.563c-18.126-22.265-52.202-22.261-70.326,0h-18.315c-3.015,0-5.466-2.451-5.466-5.466
			v-30.45c0-3.015,2.451-5.466,5.466-5.466c20.461,0,370.879,0,385.859,0c3.015,0,5.466,2.451,5.466,5.466v30.45
			c0,3.015-2.451,5.466-5.466,5.466h-15.104c-18.141-22.283-52.219-22.243-70.326,0H251.886c-4.145,0-7.504,3.359-7.504,7.504
			c0,4.145,3.359,7.504,7.504,7.504H398.01c-9.232,29.257,12.788,58.955,43.248,58.955c30.438,0,52.486-29.676,43.247-58.955h7.02
			c11.29,0,20.475-9.185,20.475-20.475v-30.45C512,369.087,502.816,359.901,491.525,359.901z M360.773,115.861h34.713v44.287
			c0,3.015-2.451,5.467-5.466,5.467h-23.78c-3.015,0-5.467-2.452-5.467-5.467V115.861z M98.427,56.126H20.792v-0.001
			c-3.19,0-5.783-2.596-5.783-5.784v-1.107c0-3.19,2.595-5.783,5.783-5.783h77.635C97.496,47.432,97.427,51.765,98.427,56.126z
			 M140.989,420.635c19.96-14.971,48.486-0.578,48.486,24.281c0,16.725-13.605,30.33-30.33,30.33
			C130.124,475.246,117.7,438.091,140.989,420.635z M112.772,51.047c-0.736-7.658,5.339-14.291,12.969-14.291
			c14.099-0.001,18.305,19.778,4.759,25.152C122.4,65.106,113.608,59.541,112.772,51.047z M224.581,115.861h34.713v44.287
			c0,3.015-2.451,5.467-5.466,5.467h-23.78c-3.015,0-5.467-2.452-5.467-5.467V115.861z M302.53,354.434
			c0,3.015-2.451,5.467-5.466,5.467H186.811v0c-3.015,0-5.466-2.452-5.466-5.467V250.852c0-3.015,2.451-5.466,5.466-5.466h22.76
			v44.287c0,11.29,9.185,20.475,20.476,20.475h23.78c11.29,0,20.475-9.185,20.475-20.475v-44.287h22.761
			c3.015,0,5.466,2.451,5.466,5.466V354.434z M224.58,289.673v-44.287h0.001h34.712v44.287c0,3.015-2.451,5.466-5.466,5.466h-23.78
			C227.032,295.139,224.58,292.688,224.58,289.673z M302.53,224.909c0,3.015-2.451,5.467-5.466,5.467c-12.244,0-97.984,0-110.253,0
			c-3.015,0-5.466-2.452-5.466-5.467V121.328h0c0-3.015,2.451-5.466,5.466-5.466h22.76v44.287c0,11.291,9.185,20.476,20.476,20.476
			h23.78c11.29,0,20.475-9.185,20.475-20.476v-44.287h22.761c3.015,0,5.466,2.451,5.466,5.466V224.909z M360.773,245.386h34.713v0
			v44.287c0,3.015-2.451,5.466-5.466,5.466h-23.78c-3.015,0-5.467-2.451-5.467-5.466V245.386z M438.723,354.434
			c0,3.015-2.451,5.467-5.466,5.467H323.004v0c-3.015,0-5.466-2.452-5.466-5.467V250.852c0-3.015,2.451-5.466,5.466-5.466h22.76
			v44.287c0,11.29,9.185,20.475,20.476,20.475h23.78c11.29,0,20.475-9.185,20.475-20.475v-44.287h22.761
			c3.015,0,5.466,2.451,5.466,5.466V354.434z M441.259,475.246c-16.725,0-30.332-13.606-30.332-30.331
			c0-20.725,20.376-35.261,39.85-28.791c12.123,4.006,20.811,15.438,20.811,28.791C471.589,461.641,457.983,475.246,441.259,475.246
			z"/>
	</g>
</g>
<g>
</g>
<g>
</g>
<g>
</g>
<g>
</g>
<g>
</g>
<g>
</g>
<g>
</g>
<g>
</g>
<g>
</g>
<g>
</g>
<g>
</g>
<g>
</g>
<g>
</g>
<g>
</g>
<g>
</g>
</svg>
